<svg width="1245" height="586" viewBox="0 0 1245 586" fill="none" xmlns="http://www.w3.org/2000/svg">
<path d="M0 0H1245V586H0V0Z" fill="black"/>
<path d="M580 84.5C577.5 82.5 576 86.5 580 86M523 99.5C520 99 520 103 523 102.5" stroke="#EB0DCB" stroke-width="3"/>
<path d="M787 390.5C790 390 789 395 786.5 393" stroke="#FA6C55" stroke-width="3"/>
<path d="M708 407.5C712.5 409.5 712.5 404.5 709.5 405" stroke="#FB7253" stroke-width="3"/>
<path d="M652 421C654.5 423 654.5 419 652.5 419.5" stroke="#FB7253" stroke-width="3"/>
<path d="M579 419.5C578 419.5 578 422 579 421.5" stroke="#FB7253" stroke-width="3"/>
<path d="M787 113C790 113 790 116 787 116" stroke="#EB0FC1" stroke-width="3"/>
<path d="M709 102.5C712.5 103 712.5 99 709.5 99.5" stroke="#EB0CCC" stroke-width="3"/>
<path d="M579 420.5C624 414.006 617 91.5057 579 85" stroke="url(#paint0_linear_2_106)" stroke-width="5"/>
<path d="M444.5 392.007C655.5 370.506 606 109.506 444.5 114.507M522 406.506C632 380.506 612 101.006 522 101.006" stroke="url(#paint1_linear_2_106)" stroke-width="6"/>
<path d="M653.18 420.506C608.18 414.011 615.18 91.5115 653.18 85.0057" stroke="url(#paint2_linear_2_106)" stroke-width="5"/>
<path d="M787.68 392.013C576.68 370.511 626.18 109.512 787.68 114.513M710.18 406.511C600.18 380.511 620.18 101.011 710.18 101.011" stroke="url(#paint3_linear_2_106)" stroke-width="6"/>
<mask id="path-13-outside-1_2_106" maskUnits="userSpaceOnUse" x="219" y="198" width="324" height="130" fill="black">
<rect fill="white" x="219" y="198" width="324" height="130"/>
<path d="M279.875 231.375C279.875 238.625 277.375 244.667 272.375 249.5C267.458 254.25 259.917 256.625 249.75 256.625H233V293H221.625V205.875H249.75C259.583 205.875 267.042 208.25 272.125 213C277.292 217.75 279.875 223.875 279.875 231.375ZM249.75 247.25C256.083 247.25 260.75 245.875 263.75 243.125C266.75 240.375 268.25 236.458 268.25 231.375C268.25 220.625 262.083 215.25 249.75 215.25H233V247.25H249.75ZM323.888 294.125C317.471 294.125 311.638 292.667 306.388 289.75C301.221 286.833 297.138 282.708 294.138 277.375C291.221 271.958 289.763 265.708 289.763 258.625C289.763 251.625 291.263 245.458 294.263 240.125C297.346 234.708 301.513 230.583 306.763 227.75C312.013 224.833 317.888 223.375 324.388 223.375C330.888 223.375 336.763 224.833 342.013 227.75C347.263 230.583 351.388 234.667 354.388 240C357.471 245.333 359.013 251.542 359.013 258.625C359.013 265.708 357.429 271.958 354.263 277.375C351.179 282.708 346.971 286.833 341.638 289.75C336.304 292.667 330.388 294.125 323.888 294.125ZM323.888 284.125C327.971 284.125 331.804 283.167 335.388 281.25C338.971 279.333 341.846 276.458 344.013 272.625C346.263 268.792 347.388 264.125 347.388 258.625C347.388 253.125 346.304 248.458 344.138 244.625C341.971 240.792 339.138 237.958 335.638 236.125C332.138 234.208 328.346 233.25 324.263 233.25C320.096 233.25 316.263 234.208 312.763 236.125C309.346 237.958 306.596 240.792 304.513 244.625C302.429 248.458 301.388 253.125 301.388 258.625C301.388 264.208 302.388 268.917 304.388 272.75C306.471 276.583 309.221 279.458 312.638 281.375C316.054 283.208 319.804 284.125 323.888 284.125ZM385.344 200.5V293H373.969V200.5H385.344ZM463.73 224.5L422.48 325.25H410.73L424.23 292.25L396.605 224.5H409.23L430.73 280L451.98 224.5H463.73ZM470.915 258.5C470.915 251.5 472.332 245.375 475.165 240.125C477.998 234.792 481.873 230.667 486.79 227.75C491.79 224.833 497.332 223.375 503.415 223.375C509.415 223.375 514.623 224.667 519.04 227.25C523.457 229.833 526.748 233.083 528.915 237V224.5H540.415V293H528.915V280.25C526.665 284.25 523.29 287.583 518.79 290.25C514.373 292.833 509.207 294.125 503.29 294.125C497.207 294.125 491.707 292.625 486.79 289.625C481.873 286.625 477.998 282.417 475.165 277C472.332 271.583 470.915 265.417 470.915 258.5ZM528.915 258.625C528.915 253.458 527.873 248.958 525.79 245.125C523.707 241.292 520.873 238.375 517.29 236.375C513.79 234.292 509.915 233.25 505.665 233.25C501.415 233.25 497.54 234.25 494.04 236.25C490.54 238.25 487.748 241.167 485.665 245C483.582 248.833 482.54 253.333 482.54 258.5C482.54 263.75 483.582 268.333 485.665 272.25C487.748 276.083 490.54 279.042 494.04 281.125C497.54 283.125 501.415 284.125 505.665 284.125C509.915 284.125 513.79 283.125 517.29 281.125C520.873 279.042 523.707 276.083 525.79 272.25C527.873 268.333 528.915 263.792 528.915 258.625Z"/>
</mask>
<path d="M279.875 231.375C279.875 238.625 277.375 244.667 272.375 249.5C267.458 254.25 259.917 256.625 249.75 256.625H233V293H221.625V205.875H249.75C259.583 205.875 267.042 208.25 272.125 213C277.292 217.75 279.875 223.875 279.875 231.375ZM249.75 247.25C256.083 247.25 260.75 245.875 263.75 243.125C266.75 240.375 268.25 236.458 268.25 231.375C268.25 220.625 262.083 215.25 249.75 215.25H233V247.25H249.75ZM323.888 294.125C317.471 294.125 311.638 292.667 306.388 289.75C301.221 286.833 297.138 282.708 294.138 277.375C291.221 271.958 289.763 265.708 289.763 258.625C289.763 251.625 291.263 245.458 294.263 240.125C297.346 234.708 301.513 230.583 306.763 227.75C312.013 224.833 317.888 223.375 324.388 223.375C330.888 223.375 336.763 224.833 342.013 227.75C347.263 230.583 351.388 234.667 354.388 240C357.471 245.333 359.013 251.542 359.013 258.625C359.013 265.708 357.429 271.958 354.263 277.375C351.179 282.708 346.971 286.833 341.638 289.75C336.304 292.667 330.388 294.125 323.888 294.125ZM323.888 284.125C327.971 284.125 331.804 283.167 335.388 281.25C338.971 279.333 341.846 276.458 344.013 272.625C346.263 268.792 347.388 264.125 347.388 258.625C347.388 253.125 346.304 248.458 344.138 244.625C341.971 240.792 339.138 237.958 335.638 236.125C332.138 234.208 328.346 233.25 324.263 233.25C320.096 233.25 316.263 234.208 312.763 236.125C309.346 237.958 306.596 240.792 304.513 244.625C302.429 248.458 301.388 253.125 301.388 258.625C301.388 264.208 302.388 268.917 304.388 272.75C306.471 276.583 309.221 279.458 312.638 281.375C316.054 283.208 319.804 284.125 323.888 284.125ZM385.344 200.5V293H373.969V200.5H385.344ZM463.73 224.5L422.48 325.25H410.73L424.23 292.25L396.605 224.5H409.23L430.73 280L451.98 224.5H463.73ZM470.915 258.5C470.915 251.5 472.332 245.375 475.165 240.125C477.998 234.792 481.873 230.667 486.79 227.75C491.79 224.833 497.332 223.375 503.415 223.375C509.415 223.375 514.623 224.667 519.04 227.25C523.457 229.833 526.748 233.083 528.915 237V224.5H540.415V293H528.915V280.25C526.665 284.25 523.29 287.583 518.79 290.25C514.373 292.833 509.207 294.125 503.29 294.125C497.207 294.125 491.707 292.625 486.79 289.625C481.873 286.625 477.998 282.417 475.165 277C472.332 271.583 470.915 265.417 470.915 258.5ZM528.915 258.625C528.915 253.458 527.873 248.958 525.79 245.125C523.707 241.292 520.873 238.375 517.29 236.375C513.79 234.292 509.915 233.25 505.665 233.25C501.415 233.25 497.54 234.25 494.04 236.25C490.54 238.25 487.748 241.167 485.665 245C483.582 248.833 482.54 253.333 482.54 258.5C482.54 263.75 483.582 268.333 485.665 272.25C487.748 276.083 490.54 279.042 494.04 281.125C497.54 283.125 501.415 284.125 505.665 284.125C509.915 284.125 513.79 283.125 517.29 281.125C520.873 279.042 523.707 276.083 525.79 272.25C527.873 268.333 528.915 263.792 528.915 258.625Z" fill="white"/>
<path d="M272.375 249.5L273.765 250.938L273.765 250.938L272.375 249.5ZM233 256.625V254.625H231V256.625H233ZM233 293V295H235V293H233ZM221.625 293H219.625V295H221.625V293ZM221.625 205.875V203.875H219.625V205.875H221.625ZM272.125 213L270.76 214.461L270.765 214.467L270.771 214.472L272.125 213ZM263.75 243.125L265.101 244.599L265.101 244.599L263.75 243.125ZM233 215.25V213.25H231V215.25H233ZM233 247.25H231V249.25H233V247.25ZM277.875 231.375C277.875 238.109 275.577 243.623 270.985 248.062L273.765 250.938C279.173 245.71 281.875 239.141 281.875 231.375H277.875ZM270.985 248.062C266.589 252.309 259.647 254.625 249.75 254.625V258.625C260.186 258.625 268.328 256.191 273.765 250.938L270.985 248.062ZM249.75 254.625H233V258.625H249.75V254.625ZM231 256.625V293H235V256.625H231ZM233 291H221.625V295H233V291ZM223.625 293V205.875H219.625V293H223.625ZM221.625 207.875H249.75V203.875H221.625V207.875ZM249.75 207.875C259.286 207.875 266.176 210.178 270.76 214.461L273.49 211.539C267.908 206.322 259.881 203.875 249.75 203.875V207.875ZM270.771 214.472C275.495 218.815 277.875 224.391 277.875 231.375H281.875C281.875 223.359 279.088 216.685 273.479 211.528L270.771 214.472ZM249.75 249.25C256.316 249.25 261.574 247.833 265.101 244.599L262.399 241.651C259.926 243.917 255.85 245.25 249.75 245.25V249.25ZM265.101 244.599C268.613 241.38 270.25 236.869 270.25 231.375H266.25C266.25 236.047 264.887 239.37 262.399 241.651L265.101 244.599ZM270.25 231.375C270.25 225.615 268.585 220.951 264.939 217.774C261.346 214.641 256.163 213.25 249.75 213.25V217.25C255.671 217.25 259.738 218.546 262.311 220.789C264.832 222.986 266.25 226.385 266.25 231.375H270.25ZM249.75 213.25H233V217.25H249.75V213.25ZM231 215.25V247.25H235V215.25H231ZM233 249.25H249.75V245.25H233V249.25ZM306.388 289.75L305.404 291.492L305.416 291.498L306.388 289.75ZM294.138 277.375L292.377 278.323L292.385 278.339L292.395 278.356L294.138 277.375ZM294.263 240.125L292.525 239.136L292.52 239.144L294.263 240.125ZM306.763 227.75L307.713 229.51L307.723 229.504L307.734 229.498L306.763 227.75ZM342.013 227.75L341.041 229.498L341.052 229.504L341.063 229.51L342.013 227.75ZM354.388 240L352.645 240.981L352.65 240.991L352.656 241.001L354.388 240ZM354.263 277.375L352.536 276.366L352.531 276.374L354.263 277.375ZM341.638 289.75L342.597 291.505L342.597 291.505L341.638 289.75ZM344.013 272.625L342.288 271.613L342.28 271.627L342.272 271.641L344.013 272.625ZM335.638 236.125L334.677 237.879L334.693 237.888L334.71 237.897L335.638 236.125ZM312.763 236.125L313.708 237.887L313.716 237.883L313.723 237.879L312.763 236.125ZM304.513 244.625L306.27 245.58L306.27 245.58L304.513 244.625ZM304.388 272.75L302.615 273.675L302.622 273.69L302.63 273.705L304.388 272.75ZM312.638 281.375L311.659 283.119L311.676 283.128L311.692 283.137L312.638 281.375ZM323.888 292.125C317.787 292.125 312.292 290.742 307.359 288.002L305.416 291.498C310.984 294.591 317.155 296.125 323.888 296.125V292.125ZM307.371 288.008C302.533 285.277 298.708 281.42 295.881 276.394L292.395 278.356C295.568 283.997 299.909 288.39 305.405 291.492L307.371 288.008ZM295.899 276.427C293.161 271.343 291.763 265.428 291.763 258.625H287.763C287.763 265.989 289.281 272.574 292.377 278.323L295.899 276.427ZM291.763 258.625C291.763 251.918 293.197 246.099 296.006 241.106L292.52 239.144C289.328 244.818 287.763 251.332 287.763 258.625H291.763ZM296.001 241.114C298.907 236.008 302.807 232.157 307.713 229.51L305.813 225.99C300.218 229.009 295.785 233.409 292.525 239.136L296.001 241.114ZM307.734 229.498C312.663 226.76 318.199 225.375 324.388 225.375V221.375C317.577 221.375 311.363 222.907 305.791 226.002L307.734 229.498ZM324.388 225.375C330.577 225.375 336.113 226.76 341.041 229.498L342.984 226.002C337.413 222.907 331.199 221.375 324.388 221.375V225.375ZM341.063 229.51C345.971 232.159 349.825 235.968 352.645 240.981L356.131 239.019C352.95 233.365 348.554 229.008 342.963 225.99L341.063 229.51ZM352.656 241.001C355.539 245.987 357.013 251.84 357.013 258.625H361.013C361.013 251.244 359.403 244.68 356.119 238.999L352.656 241.001ZM357.013 258.625C357.013 265.4 355.502 271.293 352.536 276.366L355.989 278.384C359.357 272.624 361.013 266.016 361.013 258.625H357.013ZM352.531 276.374C349.629 281.395 345.685 285.257 340.678 287.995L342.597 291.505C348.257 288.41 352.73 284.022 355.994 278.376L352.531 276.374ZM340.678 287.995C335.659 290.74 330.076 292.125 323.888 292.125V296.125C330.699 296.125 336.949 294.593 342.597 291.505L340.678 287.995ZM323.888 286.125C328.298 286.125 332.456 285.086 336.331 283.014L334.444 279.486C331.153 281.247 327.644 282.125 323.888 282.125V286.125ZM336.331 283.014C340.277 280.903 343.417 277.744 345.754 273.609L342.272 271.641C340.275 275.173 337.665 277.764 334.444 279.486L336.331 283.014ZM345.738 273.637C348.206 269.432 349.388 264.397 349.388 258.625H345.388C345.388 263.853 344.32 268.151 342.288 271.613L345.738 273.637ZM349.388 258.625C349.388 252.865 348.253 247.84 345.879 243.641L342.397 245.609C344.356 249.076 345.388 253.385 345.388 258.625H349.388ZM345.879 243.641C343.545 239.512 340.445 236.385 336.566 234.353L334.71 237.897C337.83 239.531 340.397 242.071 342.397 245.609L345.879 243.641ZM336.598 234.371C332.797 232.289 328.674 231.25 324.263 231.25V235.25C328.018 235.25 331.479 236.128 334.677 237.879L336.598 234.371ZM324.263 231.25C319.776 231.25 315.61 232.286 311.802 234.371L313.723 237.879C316.916 236.131 320.416 235.25 324.263 235.25V231.25ZM311.817 234.363C308.015 236.403 305.001 239.538 302.755 243.67L306.27 245.58C308.191 242.045 310.677 239.514 313.708 237.887L311.817 234.363ZM302.755 243.67C300.477 247.863 299.388 252.877 299.388 258.625H303.388C303.388 253.373 304.382 249.054 306.27 245.58L302.755 243.67ZM299.388 258.625C299.388 264.439 300.428 269.485 302.615 273.675L306.161 271.825C304.347 268.348 303.388 263.977 303.388 258.625H299.388ZM302.63 273.705C304.873 277.831 307.877 280.998 311.659 283.119L313.616 279.631C310.565 277.919 308.069 275.336 306.145 271.795L302.63 273.705ZM311.692 283.137C315.415 285.135 319.492 286.125 323.888 286.125V282.125C320.116 282.125 316.694 281.282 313.583 279.613L311.692 283.137ZM385.344 200.5H387.344V198.5H385.344V200.5ZM385.344 293V295H387.344V293H385.344ZM373.969 293H371.969V295H373.969V293ZM373.969 200.5V198.5H371.969V200.5H373.969ZM383.344 200.5V293H387.344V200.5H383.344ZM385.344 291H373.969V295H385.344V291ZM375.969 293V200.5H371.969V293H375.969ZM373.969 202.5H385.344V198.5H373.969V202.5ZM463.73 224.5L465.581 225.258L466.71 222.5H463.73V224.5ZM422.48 325.25V327.25H423.823L424.331 326.008L422.48 325.25ZM410.73 325.25L408.879 324.493L407.751 327.25H410.73V325.25ZM424.23 292.25L426.082 293.007L426.391 292.251L426.082 291.495L424.23 292.25ZM396.605 224.5V222.5H393.63L394.754 225.255L396.605 224.5ZM409.23 224.5L411.095 223.778L410.601 222.5H409.23V224.5ZM430.73 280L428.866 280.722L430.741 285.565L432.598 280.715L430.73 280ZM451.98 224.5V222.5H450.605L450.113 223.785L451.98 224.5ZM461.88 223.742L420.63 324.492L424.331 326.008L465.581 225.258L461.88 223.742ZM422.48 323.25H410.73V327.25H422.48V323.25ZM412.582 326.007L426.082 293.007L422.379 291.493L408.879 324.493L412.582 326.007ZM426.082 291.495L398.457 223.745L394.754 225.255L422.379 293.005L426.082 291.495ZM396.605 226.5H409.23V222.5H396.605V226.5ZM407.366 225.222L428.866 280.722L432.595 279.278L411.095 223.778L407.366 225.222ZM432.598 280.715L453.848 225.215L450.113 223.785L428.863 279.285L432.598 280.715ZM451.98 226.5H463.73V222.5H451.98V226.5ZM475.165 240.125L476.925 241.075L476.931 241.063L475.165 240.125ZM486.79 227.75L485.782 226.022L485.776 226.026L485.77 226.03L486.79 227.75ZM519.04 227.25L518.03 228.976L518.03 228.976L519.04 227.25ZM528.915 237L527.165 237.968L530.915 237H528.915ZM528.915 224.5V222.5H526.915V224.5H528.915ZM540.415 224.5H542.415V222.5H540.415V224.5ZM540.415 293V295H542.415V293H540.415ZM528.915 293H526.915V295H528.915V293ZM528.915 280.25H530.915V272.615L527.172 279.269L528.915 280.25ZM518.79 290.25L519.8 291.976L519.81 291.971L518.79 290.25ZM486.79 289.625L485.748 291.332L485.748 291.332L486.79 289.625ZM475.165 277L476.937 276.073L476.937 276.073L475.165 277ZM517.29 236.375L516.267 238.094L516.291 238.108L516.315 238.121L517.29 236.375ZM494.04 236.25L493.048 234.514L493.048 234.514L494.04 236.25ZM485.665 245L487.422 245.955L487.422 245.955L485.665 245ZM485.665 272.25L483.899 273.189L483.904 273.197L483.908 273.205L485.665 272.25ZM494.04 281.125L493.017 282.844L493.032 282.853L493.048 282.861L494.04 281.125ZM517.29 281.125L518.282 282.861L518.289 282.858L518.295 282.854L517.29 281.125ZM525.79 272.25L527.547 273.205L527.552 273.197L527.556 273.189L525.79 272.25ZM472.915 258.5C472.915 251.774 474.275 245.986 476.925 241.075L473.405 239.175C470.389 244.764 468.915 251.226 468.915 258.5H472.915ZM476.931 241.063C479.603 236.035 483.227 232.189 487.81 229.47L485.77 226.03C480.519 229.145 476.394 233.548 473.399 239.187L476.931 241.063ZM487.798 229.478C492.476 226.749 497.667 225.375 503.415 225.375V221.375C496.996 221.375 491.104 222.918 485.782 226.022L487.798 229.478ZM503.415 225.375C509.122 225.375 513.969 226.601 518.03 228.976L520.05 225.524C515.277 222.732 509.708 221.375 503.415 221.375V225.375ZM518.03 228.976C522.182 231.405 525.196 234.409 527.165 237.968L530.665 236.032C528.301 231.758 524.732 228.262 520.05 225.524L518.03 228.976ZM530.915 237V224.5H526.915V237H530.915ZM528.915 226.5H540.415V222.5H528.915V226.5ZM538.415 224.5V293H542.415V224.5H538.415ZM540.415 291H528.915V295H540.415V291ZM530.915 293V280.25H526.915V293H530.915ZM527.172 279.269C525.117 282.923 522.011 286.016 517.77 288.529L519.81 291.971C524.569 289.15 528.213 285.577 530.658 281.231L527.172 279.269ZM517.78 288.524C513.715 290.901 508.908 292.125 503.29 292.125V296.125C509.505 296.125 515.032 294.765 519.8 291.976L517.78 288.524ZM503.29 292.125C497.553 292.125 492.417 290.715 487.832 287.918L485.748 291.332C490.997 294.535 496.861 296.125 503.29 296.125V292.125ZM487.832 287.918C483.244 285.118 479.613 281.189 476.937 276.073L473.393 277.927C476.384 283.645 480.503 288.132 485.748 291.332L487.832 287.918ZM476.937 276.073C474.272 270.978 472.915 265.137 472.915 258.5H468.915C468.915 265.697 470.391 272.189 473.393 277.927L476.937 276.073ZM530.915 258.625C530.915 253.186 529.817 248.346 527.547 244.17L524.033 246.08C525.93 249.571 526.915 253.73 526.915 258.625H530.915ZM527.547 244.17C525.295 240.026 522.2 236.825 518.265 234.629L516.315 238.121C519.547 239.925 522.118 242.557 524.033 246.08L527.547 244.17ZM518.313 234.656C514.49 232.381 510.259 231.25 505.665 231.25V235.25C509.571 235.25 513.09 236.203 516.267 238.094L518.313 234.656ZM505.665 231.25C501.087 231.25 496.867 232.331 493.048 234.514L495.032 237.986C498.214 236.169 501.743 235.25 505.665 235.25V231.25ZM493.048 234.514C489.199 236.713 486.153 239.913 483.908 244.045L487.422 245.955C489.343 242.42 491.881 239.787 495.032 237.986L493.048 234.514ZM483.908 244.045C481.638 248.221 480.54 253.061 480.54 258.5H484.54C484.54 253.605 485.525 249.446 487.422 245.955L483.908 244.045ZM480.54 258.5C480.54 264.018 481.636 268.935 483.899 273.189L487.431 271.311C485.527 267.732 484.54 263.482 484.54 258.5H480.54ZM483.908 273.205C486.15 277.331 489.186 280.563 493.017 282.844L495.063 279.406C491.894 277.52 489.347 274.836 487.422 271.295L483.908 273.205ZM493.048 282.861C496.867 285.044 501.087 286.125 505.665 286.125V282.125C501.743 282.125 498.214 281.206 495.032 279.389L493.048 282.861ZM505.665 286.125C510.243 286.125 514.464 285.044 518.282 282.861L516.298 279.389C513.117 281.206 509.587 282.125 505.665 282.125V286.125ZM518.295 282.854C522.212 280.577 525.299 277.343 527.547 273.205L524.033 271.295C522.115 274.824 519.534 277.507 516.285 279.396L518.295 282.854ZM527.556 273.189C529.816 268.939 530.915 264.065 530.915 258.625H526.915C526.915 263.518 525.93 267.728 524.024 271.311L527.556 273.189Z" fill="white" mask="url(#path-13-outside-1_2_106)"/>
<mask id="path-15-outside-2_2_106" maskUnits="userSpaceOnUse" x="681" y="198" width="333" height="130" fill="black">
<rect fill="white" x="681" y="198" width="333" height="130"/>
<path d="M683.375 249.375C683.375 240.875 685.292 233.25 689.125 226.5C692.958 219.667 698.167 214.333 704.75 210.5C711.417 206.667 718.792 204.75 726.875 204.75C736.375 204.75 744.667 207.042 751.75 211.625C758.833 216.208 764 222.708 767.25 231.125H753.625C751.208 225.875 747.708 221.833 743.125 219C738.625 216.167 733.208 214.75 726.875 214.75C720.792 214.75 715.333 216.167 710.5 219C705.667 221.833 701.875 225.875 699.125 231.125C696.375 236.292 695 242.375 695 249.375C695 256.292 696.375 262.375 699.125 267.625C701.875 272.792 705.667 276.792 710.5 279.625C715.333 282.458 720.792 283.875 726.875 283.875C733.208 283.875 738.625 282.5 743.125 279.75C747.708 276.917 751.208 272.875 753.625 267.625H767.25C764 275.958 758.833 282.417 751.75 287C744.667 291.5 736.375 293.75 726.875 293.75C718.792 293.75 711.417 291.875 704.75 288.125C698.167 284.292 692.958 279 689.125 272.25C685.292 265.5 683.375 257.875 683.375 249.375ZM795.558 237.125C797.808 233.208 801.141 229.958 805.558 227.375C810.058 224.708 815.266 223.375 821.183 223.375C827.266 223.375 832.766 224.833 837.683 227.75C842.683 230.667 846.599 234.792 849.433 240.125C852.266 245.375 853.683 251.5 853.683 258.5C853.683 265.417 852.266 271.583 849.433 277C846.599 282.417 842.683 286.625 837.683 289.625C832.766 292.625 827.266 294.125 821.183 294.125C815.349 294.125 810.183 292.833 805.683 290.25C801.266 287.583 797.891 284.292 795.558 280.375V325.5H784.183V224.5H795.558V237.125ZM842.058 258.5C842.058 253.333 841.016 248.833 838.933 245C836.849 241.167 834.016 238.25 830.433 236.25C826.933 234.25 823.058 233.25 818.808 233.25C814.641 233.25 810.766 234.292 807.183 236.375C803.683 238.375 800.849 241.333 798.683 245.25C796.599 249.083 795.558 253.542 795.558 258.625C795.558 263.792 796.599 268.333 798.683 272.25C800.849 276.083 803.683 279.042 807.183 281.125C810.766 283.125 814.641 284.125 818.808 284.125C823.058 284.125 826.933 283.125 830.433 281.125C834.016 279.042 836.849 276.083 838.933 272.25C841.016 268.333 842.058 263.75 842.058 258.5ZM880.03 200.5V293H868.655V200.5H880.03ZM929.292 294.125C922.875 294.125 917.042 292.667 911.792 289.75C906.625 286.833 902.542 282.708 899.542 277.375C896.625 271.958 895.167 265.708 895.167 258.625C895.167 251.625 896.667 245.458 899.667 240.125C902.75 234.708 906.917 230.583 912.167 227.75C917.417 224.833 923.292 223.375 929.792 223.375C936.292 223.375 942.167 224.833 947.417 227.75C952.667 230.583 956.792 234.667 959.792 240C962.875 245.333 964.417 251.542 964.417 258.625C964.417 265.708 962.834 271.958 959.667 277.375C956.584 282.708 952.375 286.833 947.042 289.75C941.709 292.667 935.792 294.125 929.292 294.125ZM929.292 284.125C933.375 284.125 937.209 283.167 940.792 281.25C944.375 279.333 947.25 276.458 949.417 272.625C951.667 268.792 952.792 264.125 952.792 258.625C952.792 253.125 951.709 248.458 949.542 244.625C947.375 240.792 944.542 237.958 941.042 236.125C937.542 234.208 933.75 233.25 929.667 233.25C925.5 233.25 921.667 234.208 918.167 236.125C914.75 237.958 912 240.792 909.917 244.625C907.834 248.458 906.792 253.125 906.792 258.625C906.792 264.208 907.792 268.917 909.792 272.75C911.875 276.583 914.625 279.458 918.042 281.375C921.459 283.208 925.209 284.125 929.292 284.125ZM993.248 233.875V274.25C993.248 277.583 993.956 279.958 995.373 281.375C996.79 282.708 999.248 283.375 1002.75 283.375H1011.12V293H1000.87C994.54 293 989.79 291.542 986.623 288.625C983.456 285.708 981.873 280.917 981.873 274.25V233.875H972.998V224.5H981.873V207.25H993.248V224.5H1011.12V233.875H993.248Z"/>
</mask>
<path d="M683.375 249.375C683.375 240.875 685.292 233.25 689.125 226.5C692.958 219.667 698.167 214.333 704.75 210.5C711.417 206.667 718.792 204.75 726.875 204.75C736.375 204.75 744.667 207.042 751.75 211.625C758.833 216.208 764 222.708 767.25 231.125H753.625C751.208 225.875 747.708 221.833 743.125 219C738.625 216.167 733.208 214.75 726.875 214.75C720.792 214.75 715.333 216.167 710.5 219C705.667 221.833 701.875 225.875 699.125 231.125C696.375 236.292 695 242.375 695 249.375C695 256.292 696.375 262.375 699.125 267.625C701.875 272.792 705.667 276.792 710.5 279.625C715.333 282.458 720.792 283.875 726.875 283.875C733.208 283.875 738.625 282.5 743.125 279.75C747.708 276.917 751.208 272.875 753.625 267.625H767.25C764 275.958 758.833 282.417 751.75 287C744.667 291.5 736.375 293.75 726.875 293.75C718.792 293.75 711.417 291.875 704.75 288.125C698.167 284.292 692.958 279 689.125 272.25C685.292 265.5 683.375 257.875 683.375 249.375ZM795.558 237.125C797.808 233.208 801.141 229.958 805.558 227.375C810.058 224.708 815.266 223.375 821.183 223.375C827.266 223.375 832.766 224.833 837.683 227.75C842.683 230.667 846.599 234.792 849.433 240.125C852.266 245.375 853.683 251.5 853.683 258.5C853.683 265.417 852.266 271.583 849.433 277C846.599 282.417 842.683 286.625 837.683 289.625C832.766 292.625 827.266 294.125 821.183 294.125C815.349 294.125 810.183 292.833 805.683 290.25C801.266 287.583 797.891 284.292 795.558 280.375V325.5H784.183V224.5H795.558V237.125ZM842.058 258.5C842.058 253.333 841.016 248.833 838.933 245C836.849 241.167 834.016 238.25 830.433 236.25C826.933 234.25 823.058 233.25 818.808 233.25C814.641 233.25 810.766 234.292 807.183 236.375C803.683 238.375 800.849 241.333 798.683 245.25C796.599 249.083 795.558 253.542 795.558 258.625C795.558 263.792 796.599 268.333 798.683 272.25C800.849 276.083 803.683 279.042 807.183 281.125C810.766 283.125 814.641 284.125 818.808 284.125C823.058 284.125 826.933 283.125 830.433 281.125C834.016 279.042 836.849 276.083 838.933 272.25C841.016 268.333 842.058 263.75 842.058 258.5ZM880.03 200.5V293H868.655V200.5H880.03ZM929.292 294.125C922.875 294.125 917.042 292.667 911.792 289.75C906.625 286.833 902.542 282.708 899.542 277.375C896.625 271.958 895.167 265.708 895.167 258.625C895.167 251.625 896.667 245.458 899.667 240.125C902.75 234.708 906.917 230.583 912.167 227.75C917.417 224.833 923.292 223.375 929.792 223.375C936.292 223.375 942.167 224.833 947.417 227.75C952.667 230.583 956.792 234.667 959.792 240C962.875 245.333 964.417 251.542 964.417 258.625C964.417 265.708 962.834 271.958 959.667 277.375C956.584 282.708 952.375 286.833 947.042 289.75C941.709 292.667 935.792 294.125 929.292 294.125ZM929.292 284.125C933.375 284.125 937.209 283.167 940.792 281.25C944.375 279.333 947.25 276.458 949.417 272.625C951.667 268.792 952.792 264.125 952.792 258.625C952.792 253.125 951.709 248.458 949.542 244.625C947.375 240.792 944.542 237.958 941.042 236.125C937.542 234.208 933.75 233.25 929.667 233.25C925.5 233.25 921.667 234.208 918.167 236.125C914.75 237.958 912 240.792 909.917 244.625C907.834 248.458 906.792 253.125 906.792 258.625C906.792 264.208 907.792 268.917 909.792 272.75C911.875 276.583 914.625 279.458 918.042 281.375C921.459 283.208 925.209 284.125 929.292 284.125ZM993.248 233.875V274.25C993.248 277.583 993.956 279.958 995.373 281.375C996.79 282.708 999.248 283.375 1002.75 283.375H1011.12V293H1000.87C994.54 293 989.79 291.542 986.623 288.625C983.456 285.708 981.873 280.917 981.873 274.25V233.875H972.998V224.5H981.873V207.25H993.248V224.5H1011.12V233.875H993.248Z" fill="white"/>
<path d="M689.125 226.5L690.864 227.488L690.869 227.479L689.125 226.5ZM704.75 210.5L703.753 208.766L703.744 208.772L704.75 210.5ZM751.75 211.625L752.837 209.946L752.837 209.946L751.75 211.625ZM767.25 231.125V233.125H770.166L769.116 230.405L767.25 231.125ZM753.625 231.125L751.808 231.961L752.344 233.125H753.625V231.125ZM743.125 219L742.059 220.692L742.066 220.697L742.073 220.701L743.125 219ZM710.5 219L711.511 220.725L711.511 220.725L710.5 219ZM699.125 231.125L700.891 232.065L700.897 232.053L699.125 231.125ZM699.125 267.625L697.353 268.553L697.36 268.565L699.125 267.625ZM710.5 279.625L711.511 277.9L711.511 277.9L710.5 279.625ZM743.125 279.75L744.168 281.457L744.177 281.451L743.125 279.75ZM753.625 267.625V265.625H752.344L751.808 266.789L753.625 267.625ZM767.25 267.625L769.113 268.352L770.177 265.625H767.25V267.625ZM751.75 287L752.822 288.688L752.83 288.684L752.837 288.679L751.75 287ZM704.75 288.125L703.744 289.853L703.756 289.861L703.769 289.868L704.75 288.125ZM689.125 272.25L690.864 271.262L689.125 272.25ZM685.375 249.375C685.375 241.187 687.218 233.908 690.864 227.488L687.386 225.512C683.366 232.592 681.375 240.563 681.375 249.375H685.375ZM690.869 227.479C694.533 220.947 699.491 215.877 705.756 212.228L703.744 208.772C696.843 212.79 691.383 218.386 687.381 225.521L690.869 227.479ZM705.747 212.234C712.095 208.584 719.123 206.75 726.875 206.75V202.75C718.46 202.75 710.739 204.749 703.753 208.766L705.747 212.234ZM726.875 206.75C736.04 206.75 743.943 208.956 750.664 213.304L752.837 209.946C745.39 205.127 736.71 202.75 726.875 202.75V206.75ZM750.664 213.304C757.367 217.642 762.275 223.794 765.384 231.845L769.116 230.405C765.725 221.623 760.299 214.775 752.837 209.946L750.664 213.304ZM767.25 229.125H753.625V233.125H767.25V229.125ZM755.442 230.289C752.873 224.709 749.119 220.354 744.177 217.299L742.073 220.701C746.298 223.313 749.544 227.041 751.808 231.961L755.442 230.289ZM744.191 217.308C739.315 214.238 733.513 212.75 726.875 212.75V216.75C732.904 216.75 737.935 218.096 742.059 220.692L744.191 217.308ZM726.875 212.75C720.468 212.75 714.655 214.246 709.489 217.275L711.511 220.725C716.012 218.087 721.116 216.75 726.875 216.75V212.75ZM709.489 217.275C704.313 220.308 700.267 224.635 697.353 230.197L700.897 232.053C703.483 227.115 707.02 223.358 711.511 220.725L709.489 217.275ZM697.36 230.185C694.428 235.693 693 242.111 693 249.375H697C697 242.639 698.322 236.89 700.89 232.065L697.36 230.185ZM693 249.375C693 256.561 694.43 262.972 697.353 268.553L700.897 266.697C698.32 261.778 697 256.023 697 249.375H693ZM697.36 268.565C700.275 274.043 704.321 278.321 709.489 281.35L711.511 277.9C707.012 275.262 703.475 271.541 700.89 266.685L697.36 268.565ZM709.489 281.35C714.655 284.379 720.468 285.875 726.875 285.875V281.875C721.116 281.875 716.012 280.538 711.511 277.9L709.489 281.35ZM726.875 285.875C733.502 285.875 739.296 284.434 744.168 281.457L742.082 278.043C737.954 280.566 732.915 281.875 726.875 281.875V285.875ZM744.177 281.451C749.119 278.396 752.873 274.041 755.442 268.461L751.808 266.789C749.544 271.709 746.298 275.437 742.073 278.049L744.177 281.451ZM753.625 269.625H767.25V265.625H753.625V269.625ZM765.387 266.898C762.279 274.865 757.372 280.98 750.664 285.321L752.837 288.679C760.294 283.854 765.721 277.051 769.113 268.352L765.387 266.898ZM750.678 285.312C743.956 289.582 736.047 291.75 726.875 291.75V295.75C736.703 295.75 745.378 293.418 752.822 288.688L750.678 285.312ZM726.875 291.75C719.115 291.75 712.081 289.954 705.731 286.382L703.769 289.868C710.753 293.796 718.468 295.75 726.875 295.75V291.75ZM705.756 286.397C699.484 282.745 694.526 277.711 690.864 271.262L687.386 273.238C691.39 280.289 696.849 285.839 703.744 289.853L705.756 286.397ZM690.864 271.262C687.218 264.842 685.375 257.563 685.375 249.375H681.375C681.375 258.187 683.366 266.158 687.386 273.238L690.864 271.262ZM795.558 237.125H793.558V244.622L797.292 238.121L795.558 237.125ZM805.558 227.375L806.567 229.101L806.577 229.096L805.558 227.375ZM837.683 227.75L836.662 229.47L836.669 229.474L836.675 229.478L837.683 227.75ZM849.433 240.125L847.666 241.063L847.673 241.075L849.433 240.125ZM849.433 277L851.205 277.927L851.205 277.927L849.433 277ZM837.683 289.625L836.654 287.91L836.647 287.914L836.641 287.918L837.683 289.625ZM805.683 290.25L804.649 291.962L804.668 291.974L804.687 291.985L805.683 290.25ZM795.558 280.375L797.276 279.351L793.558 273.11V280.375H795.558ZM795.558 325.5V327.5H797.558V325.5H795.558ZM784.183 325.5H782.183V327.5H784.183V325.5ZM784.183 224.5V222.5H782.183V224.5H784.183ZM795.558 224.5H797.558V222.5H795.558V224.5ZM838.933 245L840.69 244.045L840.69 244.045L838.933 245ZM830.433 236.25L829.44 237.986L829.449 237.991L829.458 237.996L830.433 236.25ZM807.183 236.375L808.175 238.111L808.181 238.108L808.188 238.104L807.183 236.375ZM798.683 245.25L796.933 244.282L796.929 244.288L796.925 244.295L798.683 245.25ZM798.683 272.25L796.917 273.189L796.929 273.212L796.941 273.234L798.683 272.25ZM807.183 281.125L806.16 282.844L806.184 282.858L806.208 282.871L807.183 281.125ZM830.433 281.125L831.425 282.861L831.431 282.858L831.438 282.854L830.433 281.125ZM838.933 272.25L840.69 273.205L840.694 273.197L840.698 273.189L838.933 272.25ZM797.292 238.121C799.346 234.545 802.411 231.532 806.567 229.101L804.548 225.649C799.871 228.384 796.269 231.871 793.823 236.129L797.292 238.121ZM806.577 229.096C810.73 226.635 815.577 225.375 821.183 225.375V221.375C814.955 221.375 809.386 222.782 804.538 225.654L806.577 229.096ZM821.183 225.375C826.931 225.375 832.074 226.748 836.662 229.47L838.703 226.03C833.458 222.918 827.601 221.375 821.183 221.375V225.375ZM836.675 229.478C841.339 232.198 845 236.044 847.666 241.063L851.199 239.187C848.199 233.54 844.026 229.135 838.69 226.022L836.675 229.478ZM847.673 241.075C850.323 245.986 851.683 251.774 851.683 258.5H855.683C855.683 251.226 854.209 244.764 851.193 239.175L847.673 241.075ZM851.683 258.5C851.683 265.137 850.325 270.978 847.66 276.073L851.205 277.927C854.206 272.189 855.683 265.697 855.683 258.5H851.683ZM847.66 276.073C844.989 281.18 841.323 285.109 836.654 287.91L838.712 291.34C844.043 288.141 848.21 283.653 851.205 277.927L847.66 276.073ZM836.641 287.918C832.056 290.715 826.92 292.125 821.183 292.125V296.125C827.612 296.125 833.476 294.535 838.724 291.332L836.641 287.918ZM821.183 292.125C815.654 292.125 810.839 290.904 806.678 288.515L804.687 291.985C809.526 294.763 815.044 296.125 821.183 296.125V292.125ZM806.716 288.538C802.543 286.018 799.42 282.95 797.276 279.351L793.839 281.399C796.362 285.633 799.988 289.148 804.649 291.962L806.716 288.538ZM793.558 280.375V325.5H797.558V280.375H793.558ZM795.558 323.5H784.183V327.5H795.558V323.5ZM786.183 325.5V224.5H782.183V325.5H786.183ZM784.183 226.5H795.558V222.5H784.183V226.5ZM793.558 224.5V237.125H797.558V224.5H793.558ZM844.058 258.5C844.058 253.061 842.959 248.221 840.69 244.045L837.175 245.955C839.072 249.446 840.058 253.605 840.058 258.5H844.058ZM840.69 244.045C838.438 239.901 835.342 236.7 831.407 234.504L829.458 237.996C832.69 239.8 835.261 242.432 837.175 245.955L840.69 244.045ZM831.425 234.514C827.606 232.331 823.386 231.25 818.808 231.25V235.25C822.729 235.25 826.259 236.169 829.44 237.986L831.425 234.514ZM818.808 231.25C814.29 231.25 810.068 232.384 806.177 234.646L808.188 238.104C811.464 236.199 814.992 235.25 818.808 235.25V231.25ZM806.19 234.639C802.338 236.84 799.256 240.081 796.933 244.282L800.433 246.218C802.442 242.586 805.027 239.91 808.175 238.111L806.19 234.639ZM796.925 244.295C794.658 248.466 793.558 253.263 793.558 258.625H797.558C797.558 253.82 798.54 249.7 800.44 246.205L796.925 244.295ZM793.558 258.625C793.558 264.065 794.656 268.939 796.917 273.189L800.448 271.311C798.542 267.728 797.558 263.518 797.558 258.625H793.558ZM796.941 273.234C799.265 277.345 802.336 280.568 806.16 282.844L808.206 279.406C805.029 277.516 802.433 274.821 800.424 271.266L796.941 273.234ZM806.208 282.871C810.094 285.04 814.305 286.125 818.808 286.125V282.125C814.977 282.125 811.438 281.21 808.157 279.379L806.208 282.871ZM818.808 286.125C823.386 286.125 827.606 285.044 831.425 282.861L829.44 279.389C826.259 281.206 822.729 282.125 818.808 282.125V286.125ZM831.438 282.854C835.355 280.577 838.441 277.343 840.69 273.205L837.175 271.295C835.257 274.824 832.677 277.507 829.427 279.396L831.438 282.854ZM840.698 273.189C842.961 268.935 844.058 264.018 844.058 258.5H840.058C840.058 263.482 839.07 267.732 837.167 271.311L840.698 273.189ZM880.03 200.5H882.03V198.5H880.03V200.5ZM880.03 293V295H882.03V293H880.03ZM868.655 293H866.655V295H868.655V293ZM868.655 200.5V198.5H866.655V200.5H868.655ZM878.03 200.5V293H882.03V200.5H878.03ZM880.03 291H868.655V295H880.03V291ZM870.655 293V200.5H866.655V293H870.655ZM868.655 202.5H880.03V198.5H868.655V202.5ZM911.792 289.75L910.809 291.492L910.821 291.498L911.792 289.75ZM899.542 277.375L897.781 278.323L897.79 278.339L897.799 278.356L899.542 277.375ZM899.667 240.125L897.929 239.136L897.924 239.144L899.667 240.125ZM912.167 227.75L913.117 229.51L913.128 229.504L913.138 229.498L912.167 227.75ZM947.417 227.75L946.446 229.498L946.456 229.504L946.467 229.51L947.417 227.75ZM959.792 240L958.049 240.981L958.055 240.991L958.061 241.001L959.792 240ZM959.667 277.375L957.94 276.366L957.936 276.374L959.667 277.375ZM947.042 289.75L948.002 291.505L948.002 291.505L947.042 289.75ZM949.417 272.625L947.692 271.613L947.684 271.627L947.676 271.641L949.417 272.625ZM941.042 236.125L940.081 237.879L940.098 237.888L940.114 237.897L941.042 236.125ZM918.167 236.125L919.113 237.887L919.12 237.883L919.128 237.879L918.167 236.125ZM909.917 244.625L911.674 245.58L911.674 245.58L909.917 244.625ZM909.792 272.75L908.019 273.675L908.027 273.69L908.035 273.705L909.792 272.75ZM918.042 281.375L917.063 283.119L917.08 283.128L917.096 283.137L918.042 281.375ZM929.292 292.125C923.191 292.125 917.696 290.742 912.763 288.002L910.821 291.498C916.388 294.591 922.559 296.125 929.292 296.125V292.125ZM912.775 288.008C907.937 285.277 904.112 281.42 901.285 276.394L897.799 278.356C900.972 283.997 905.314 288.39 910.809 291.492L912.775 288.008ZM901.303 276.427C898.565 271.343 897.167 265.428 897.167 258.625H893.167C893.167 265.989 894.685 272.574 897.781 278.323L901.303 276.427ZM897.167 258.625C897.167 251.918 898.602 246.099 901.41 241.106L897.924 239.144C894.732 244.818 893.167 251.332 893.167 258.625H897.167ZM901.405 241.114C904.312 236.008 908.212 232.157 913.117 229.51L911.217 225.99C905.622 229.009 901.189 233.409 897.929 239.136L901.405 241.114ZM913.138 229.498C918.067 226.76 923.603 225.375 929.792 225.375V221.375C922.981 221.375 916.767 222.907 911.196 226.002L913.138 229.498ZM929.792 225.375C935.981 225.375 941.517 226.76 946.446 229.498L948.388 226.002C942.817 222.907 936.603 221.375 929.792 221.375V225.375ZM946.467 229.51C951.375 232.159 955.229 235.968 958.049 240.981L961.535 239.019C958.355 233.365 953.959 229.008 948.367 225.99L946.467 229.51ZM958.061 241.001C960.943 245.987 962.417 251.84 962.417 258.625H966.417C966.417 251.244 964.808 244.68 961.523 238.999L958.061 241.001ZM962.417 258.625C962.417 265.4 960.906 271.293 957.94 276.366L961.394 278.384C964.761 272.624 966.417 266.016 966.417 258.625H962.417ZM957.936 276.374C955.033 281.395 951.09 285.257 946.082 287.995L948.002 291.505C953.661 288.41 958.134 284.022 961.398 278.376L957.936 276.374ZM946.082 287.995C941.064 290.74 935.481 292.125 929.292 292.125V296.125C936.103 296.125 942.354 294.593 948.002 291.505L946.082 287.995ZM929.292 286.125C933.703 286.125 937.86 285.086 941.735 283.014L939.849 279.486C936.557 281.247 933.048 282.125 929.292 282.125V286.125ZM941.735 283.014C945.681 280.903 948.821 277.744 951.158 273.609L947.676 271.641C945.68 275.173 943.07 277.764 939.849 279.486L941.735 283.014ZM951.142 273.637C953.61 269.432 954.792 264.397 954.792 258.625H950.792C950.792 263.853 949.724 268.151 947.692 271.613L951.142 273.637ZM954.792 258.625C954.792 252.865 953.657 247.84 951.283 243.641L947.801 245.609C949.761 249.076 950.792 253.385 950.792 258.625H954.792ZM951.283 243.641C948.949 239.512 945.849 236.385 941.97 234.353L940.114 237.897C943.234 239.531 945.801 242.071 947.801 245.609L951.283 243.641ZM942.003 234.371C938.201 232.289 934.078 231.25 929.667 231.25V235.25C933.423 235.25 936.883 236.128 940.081 237.879L942.003 234.371ZM929.667 231.25C925.18 231.25 921.014 232.286 917.206 234.371L919.128 237.879C922.32 236.131 925.821 235.25 929.667 235.25V231.25ZM917.221 234.363C913.419 236.403 910.405 239.538 908.16 243.67L911.674 245.58C913.596 242.045 916.081 239.514 919.113 237.887L917.221 234.363ZM908.16 243.67C905.881 247.863 904.792 252.877 904.792 258.625H908.792C908.792 253.373 909.786 249.054 911.674 245.58L908.16 243.67ZM904.792 258.625C904.792 264.439 905.833 269.485 908.019 273.675L911.565 271.825C909.751 268.348 908.792 263.977 908.792 258.625H904.792ZM908.035 273.705C910.277 277.831 913.282 280.998 917.063 283.119L919.02 279.631C915.969 277.919 913.474 275.336 911.549 271.795L908.035 273.705ZM917.096 283.137C920.819 285.135 924.897 286.125 929.292 286.125V282.125C925.521 282.125 922.098 281.282 918.988 279.613L917.096 283.137ZM993.248 233.875V231.875H991.248V233.875H993.248ZM995.373 281.375L993.959 282.789L993.98 282.811L994.002 282.831L995.373 281.375ZM1011.12 283.375H1013.12V281.375H1011.12V283.375ZM1011.12 293V295H1013.12V293H1011.12ZM986.623 288.625L985.268 290.096L986.623 288.625ZM981.873 233.875H983.873V231.875H981.873V233.875ZM972.998 233.875H970.998V235.875H972.998V233.875ZM972.998 224.5V222.5H970.998V224.5H972.998ZM981.873 224.5V226.5H983.873V224.5H981.873ZM981.873 207.25V205.25H979.873V207.25H981.873ZM993.248 207.25H995.248V205.25H993.248V207.25ZM993.248 224.5H991.248V226.5H993.248V224.5ZM1011.12 224.5H1013.12V222.5H1011.12V224.5ZM1011.12 233.875V235.875H1013.12V233.875H1011.12ZM991.248 233.875V274.25H995.248V233.875H991.248ZM991.248 274.25C991.248 277.781 991.984 280.814 993.959 282.789L996.787 279.961C995.929 279.103 995.248 277.386 995.248 274.25H991.248ZM994.002 282.831C995.992 284.704 999.107 285.375 1002.75 285.375V281.375C999.389 281.375 997.588 280.713 996.744 279.919L994.002 282.831ZM1002.75 285.375H1011.12V281.375H1002.75V285.375ZM1009.12 283.375V293H1013.12V283.375H1009.12ZM1011.12 291H1000.87V295H1011.12V291ZM1000.87 291C994.809 291 990.634 289.6 987.978 287.154L985.268 290.096C988.945 293.483 994.27 295 1000.87 295V291ZM987.978 287.154C985.402 284.781 983.873 280.661 983.873 274.25H979.873C979.873 281.173 981.511 286.635 985.268 290.096L987.978 287.154ZM983.873 274.25V233.875H979.873V274.25H983.873ZM981.873 231.875H972.998V235.875H981.873V231.875ZM974.998 233.875V224.5H970.998V233.875H974.998ZM972.998 226.5H981.873V222.5H972.998V226.5ZM983.873 224.5V207.25H979.873V224.5H983.873ZM981.873 209.25H993.248V205.25H981.873V209.25ZM991.248 207.25V224.5H995.248V207.25H991.248ZM993.248 226.5H1011.12V222.5H993.248V226.5ZM1009.12 224.5V233.875H1013.12V224.5H1009.12ZM1011.12 231.875H993.248V235.875H1011.12V231.875Z" fill="white" mask="url(#path-15-outside-2_2_106)"/>
<path d="M313.575 475.681C313.575 477.131 313.075 478.339 312.075 479.306C311.092 480.256 309.583 480.731 307.55 480.731H304.2V488.006H301.925V470.581H307.55C309.517 470.581 311.008 471.056 312.025 472.006C313.058 472.956 313.575 474.181 313.575 475.681ZM307.55 478.856C308.817 478.856 309.75 478.581 310.35 478.031C310.95 477.481 311.25 476.697 311.25 475.681C311.25 473.531 310.017 472.456 307.55 472.456H304.2V478.856H307.55ZM318.678 469.506V488.006H316.403V469.506H318.678ZM328.53 488.231C327.247 488.231 326.08 487.939 325.03 487.356C323.997 486.772 323.18 485.947 322.58 484.881C321.997 483.797 321.705 482.547 321.705 481.131C321.705 479.731 322.005 478.497 322.605 477.431C323.222 476.347 324.055 475.522 325.105 474.956C326.155 474.372 327.33 474.081 328.63 474.081C329.93 474.081 331.105 474.372 332.155 474.956C333.205 475.522 334.03 476.339 334.63 477.406C335.247 478.472 335.555 479.714 335.555 481.131C335.555 482.547 335.238 483.797 334.605 484.881C333.988 485.947 333.147 486.772 332.08 487.356C331.013 487.939 329.83 488.231 328.53 488.231ZM328.53 486.231C329.347 486.231 330.113 486.039 330.83 485.656C331.547 485.272 332.122 484.697 332.555 483.931C333.005 483.164 333.23 482.231 333.23 481.131C333.23 480.031 333.013 479.097 332.58 478.331C332.147 477.564 331.58 476.997 330.88 476.631C330.18 476.247 329.422 476.056 328.605 476.056C327.772 476.056 327.005 476.247 326.305 476.631C325.622 476.997 325.072 477.564 324.655 478.331C324.238 479.097 324.03 480.031 324.03 481.131C324.03 482.247 324.23 483.189 324.63 483.956C325.047 484.722 325.597 485.297 326.28 485.681C326.963 486.047 327.713 486.231 328.53 486.231ZM341.321 476.181V484.256C341.321 484.922 341.463 485.397 341.746 485.681C342.029 485.947 342.521 486.081 343.221 486.081H344.896V488.006H342.846C341.579 488.006 340.629 487.714 339.996 487.131C339.363 486.547 339.046 485.589 339.046 484.256V476.181H337.271V474.306H339.046V470.856H341.321V474.306H344.896V476.181H341.321ZM353.468 481.131C353.468 479.714 353.751 478.481 354.318 477.431C354.884 476.364 355.668 475.539 356.668 474.956C357.684 474.372 358.843 474.081 360.143 474.081C361.826 474.081 363.209 474.489 364.293 475.306C365.393 476.122 366.118 477.256 366.468 478.706H364.018C363.784 477.872 363.326 477.214 362.643 476.731C361.976 476.247 361.143 476.006 360.143 476.006C358.843 476.006 357.793 476.456 356.993 477.356C356.193 478.239 355.793 479.497 355.793 481.131C355.793 482.781 356.193 484.056 356.993 484.956C357.793 485.856 358.843 486.306 360.143 486.306C361.143 486.306 361.976 486.072 362.643 485.606C363.309 485.139 363.768 484.472 364.018 483.606H366.468C366.101 485.006 365.368 486.131 364.268 486.981C363.168 487.814 361.793 488.231 360.143 488.231C358.843 488.231 357.684 487.939 356.668 487.356C355.668 486.772 354.884 485.947 354.318 484.881C353.751 483.814 353.468 482.564 353.468 481.131ZM375.478 488.231C374.195 488.231 373.028 487.939 371.978 487.356C370.945 486.772 370.128 485.947 369.528 484.881C368.945 483.797 368.653 482.547 368.653 481.131C368.653 479.731 368.953 478.497 369.553 477.431C370.17 476.347 371.003 475.522 372.053 474.956C373.103 474.372 374.278 474.081 375.578 474.081C376.878 474.081 378.053 474.372 379.103 474.956C380.153 475.522 380.978 476.339 381.578 477.406C382.195 478.472 382.503 479.714 382.503 481.131C382.503 482.547 382.186 483.797 381.553 484.881C380.936 485.947 380.095 486.772 379.028 487.356C377.961 487.939 376.778 488.231 375.478 488.231ZM375.478 486.231C376.295 486.231 377.061 486.039 377.778 485.656C378.495 485.272 379.07 484.697 379.503 483.931C379.953 483.164 380.178 482.231 380.178 481.131C380.178 480.031 379.961 479.097 379.528 478.331C379.095 477.564 378.528 476.997 377.828 476.631C377.128 476.247 376.37 476.056 375.553 476.056C374.72 476.056 373.953 476.247 373.253 476.631C372.57 476.997 372.02 477.564 371.603 478.331C371.186 479.097 370.978 480.031 370.978 481.131C370.978 482.247 371.178 483.189 371.578 483.956C371.995 484.722 372.545 485.297 373.228 485.681C373.911 486.047 374.661 486.231 375.478 486.231ZM401.969 474.056C403.036 474.056 403.986 474.281 404.819 474.731C405.653 475.164 406.311 475.822 406.794 476.706C407.278 477.589 407.519 478.664 407.519 479.931V488.006H405.269V480.256C405.269 478.889 404.928 477.847 404.244 477.131C403.578 476.397 402.669 476.031 401.519 476.031C400.336 476.031 399.394 476.414 398.694 477.181C397.994 477.931 397.644 479.022 397.644 480.456V488.006H395.394V480.256C395.394 478.889 395.053 477.847 394.369 477.131C393.703 476.397 392.794 476.031 391.644 476.031C390.461 476.031 389.519 476.414 388.819 477.181C388.119 477.931 387.769 479.022 387.769 480.456V488.006H385.494V474.306H387.769V476.281C388.219 475.564 388.819 475.014 389.569 474.631C390.336 474.247 391.178 474.056 392.094 474.056C393.244 474.056 394.261 474.314 395.144 474.831C396.028 475.347 396.686 476.106 397.119 477.106C397.503 476.139 398.136 475.389 399.019 474.856C399.903 474.322 400.886 474.056 401.969 474.056ZM413.526 476.831C413.976 476.047 414.643 475.397 415.526 474.881C416.426 474.347 417.468 474.081 418.651 474.081C419.868 474.081 420.968 474.372 421.951 474.956C422.951 475.539 423.735 476.364 424.301 477.431C424.868 478.481 425.151 479.706 425.151 481.106C425.151 482.489 424.868 483.722 424.301 484.806C423.735 485.889 422.951 486.731 421.951 487.331C420.968 487.931 419.868 488.231 418.651 488.231C417.485 488.231 416.451 487.972 415.551 487.456C414.668 486.922 413.993 486.264 413.526 485.481V494.506H411.251V474.306H413.526V476.831ZM422.826 481.106C422.826 480.072 422.618 479.172 422.201 478.406C421.785 477.639 421.218 477.056 420.501 476.656C419.801 476.256 419.026 476.056 418.176 476.056C417.343 476.056 416.568 476.264 415.851 476.681C415.151 477.081 414.585 477.672 414.151 478.456C413.735 479.222 413.526 480.114 413.526 481.131C413.526 482.164 413.735 483.072 414.151 483.856C414.585 484.622 415.151 485.214 415.851 485.631C416.568 486.031 417.343 486.231 418.176 486.231C419.026 486.231 419.801 486.031 420.501 485.631C421.218 485.214 421.785 484.622 422.201 483.856C422.618 483.072 422.826 482.156 422.826 481.106ZM430.421 469.506V488.006H428.146V469.506H430.421ZM446.798 480.631C446.798 481.064 446.773 481.522 446.723 482.006H435.773C435.856 483.356 436.315 484.414 437.148 485.181C437.998 485.931 439.023 486.306 440.223 486.306C441.206 486.306 442.023 486.081 442.673 485.631C443.34 485.164 443.806 484.547 444.073 483.781H446.523C446.156 485.097 445.423 486.172 444.323 487.006C443.223 487.822 441.856 488.231 440.223 488.231C438.923 488.231 437.756 487.939 436.723 487.356C435.706 486.772 434.906 485.947 434.323 484.881C433.74 483.797 433.448 482.547 433.448 481.131C433.448 479.714 433.731 478.472 434.298 477.406C434.865 476.339 435.656 475.522 436.673 474.956C437.706 474.372 438.89 474.081 440.223 474.081C441.523 474.081 442.673 474.364 443.673 474.931C444.673 475.497 445.44 476.281 445.973 477.281C446.523 478.264 446.798 479.381 446.798 480.631ZM444.448 480.156C444.448 479.289 444.256 478.547 443.873 477.931C443.49 477.297 442.965 476.822 442.298 476.506C441.648 476.172 440.923 476.006 440.123 476.006C438.973 476.006 437.99 476.372 437.173 477.106C436.373 477.839 435.915 478.856 435.798 480.156H444.448ZM456.951 488.006L453.701 482.906L450.576 488.006H448.201L452.626 481.206L448.201 474.306H450.776L454.026 479.381L457.126 474.306H459.501L455.101 481.081L459.526 488.006H456.951ZM471.264 477.881V479.806H461.289V477.881H471.264ZM480.633 485.906L484.883 474.306H487.308L481.933 488.006H479.283L473.908 474.306H476.358L480.633 485.906ZM488.697 481.106C488.697 479.706 488.98 478.481 489.547 477.431C490.114 476.364 490.889 475.539 491.872 474.956C492.872 474.372 493.98 474.081 495.197 474.081C496.397 474.081 497.439 474.339 498.322 474.856C499.205 475.372 499.864 476.022 500.297 476.806V474.306H502.597V488.006H500.297V485.456C499.847 486.256 499.172 486.922 498.272 487.456C497.389 487.972 496.355 488.231 495.172 488.231C493.955 488.231 492.855 487.931 491.872 487.331C490.889 486.731 490.114 485.889 489.547 484.806C488.98 483.722 488.697 482.489 488.697 481.106ZM500.297 481.131C500.297 480.097 500.089 479.197 499.672 478.431C499.255 477.664 498.689 477.081 497.972 476.681C497.272 476.264 496.497 476.056 495.647 476.056C494.797 476.056 494.022 476.256 493.322 476.656C492.622 477.056 492.064 477.639 491.647 478.406C491.23 479.172 491.022 480.072 491.022 481.106C491.022 482.156 491.23 483.072 491.647 483.856C492.064 484.622 492.622 485.214 493.322 485.631C494.022 486.031 494.797 486.231 495.647 486.231C496.497 486.231 497.272 486.031 497.972 485.631C498.689 485.214 499.255 484.622 499.672 483.856C500.089 483.072 500.297 482.164 500.297 481.131ZM508.717 469.506V488.006H506.442V469.506H508.717ZM524.744 474.306V488.006H522.469V485.981C522.036 486.681 521.427 487.231 520.644 487.631C519.877 488.014 519.027 488.206 518.094 488.206C517.027 488.206 516.069 487.989 515.219 487.556C514.369 487.106 513.694 486.439 513.194 485.556C512.711 484.672 512.469 483.597 512.469 482.331V474.306H514.719V482.031C514.719 483.381 515.061 484.422 515.744 485.156C516.427 485.872 517.361 486.231 518.544 486.231C519.761 486.231 520.719 485.856 521.419 485.106C522.119 484.356 522.469 483.264 522.469 481.831V474.306H524.744ZM541.085 480.631C541.085 481.064 541.06 481.522 541.01 482.006H530.06C530.143 483.356 530.602 484.414 531.435 485.181C532.285 485.931 533.31 486.306 534.51 486.306C535.493 486.306 536.31 486.081 536.96 485.631C537.627 485.164 538.093 484.547 538.36 483.781H540.81C540.443 485.097 539.71 486.172 538.61 487.006C537.51 487.822 536.143 488.231 534.51 488.231C533.21 488.231 532.043 487.939 531.01 487.356C529.993 486.772 529.193 485.947 528.61 484.881C528.027 483.797 527.735 482.547 527.735 481.131C527.735 479.714 528.018 478.472 528.585 477.406C529.152 476.339 529.943 475.522 530.96 474.956C531.993 474.372 533.177 474.081 534.51 474.081C535.81 474.081 536.96 474.364 537.96 474.931C538.96 475.497 539.727 476.281 540.26 477.281C540.81 478.264 541.085 479.381 541.085 480.631ZM538.735 480.156C538.735 479.289 538.543 478.547 538.16 477.931C537.777 477.297 537.252 476.822 536.585 476.506C535.935 476.172 535.21 476.006 534.41 476.006C533.26 476.006 532.277 476.372 531.46 477.106C530.66 477.839 530.202 478.856 530.085 480.156H538.735ZM543.238 481.106C543.238 479.706 543.521 478.481 544.088 477.431C544.655 476.364 545.43 475.539 546.413 474.956C547.413 474.372 548.53 474.081 549.763 474.081C550.83 474.081 551.821 474.331 552.738 474.831C553.655 475.314 554.355 475.956 554.838 476.756V469.506H557.138V488.006H554.838V485.431C554.388 486.247 553.721 486.922 552.838 487.456C551.955 487.972 550.921 488.231 549.738 488.231C548.521 488.231 547.413 487.931 546.413 487.331C545.43 486.731 544.655 485.889 544.088 484.806C543.521 483.722 543.238 482.489 543.238 481.106ZM554.838 481.131C554.838 480.097 554.63 479.197 554.213 478.431C553.796 477.664 553.23 477.081 552.513 476.681C551.813 476.264 551.038 476.056 550.188 476.056C549.338 476.056 548.563 476.256 547.863 476.656C547.163 477.056 546.605 477.639 546.188 478.406C545.771 479.172 545.563 480.072 545.563 481.106C545.563 482.156 545.771 483.072 546.188 483.856C546.605 484.622 547.163 485.214 547.863 485.631C548.563 486.031 549.338 486.231 550.188 486.231C551.038 486.231 551.813 486.031 552.513 485.631C553.23 485.214 553.796 484.622 554.213 483.856C554.63 483.072 554.838 482.164 554.838 481.131ZM573.223 476.181H570.348V488.006H568.073V476.181H566.298V474.306H568.073V473.331C568.073 471.797 568.464 470.681 569.248 469.981C570.048 469.264 571.323 468.906 573.073 468.906V470.806C572.073 470.806 571.364 471.006 570.948 471.406C570.548 471.789 570.348 472.431 570.348 473.331V474.306H573.223V476.181ZM588.025 474.306V488.006H585.75V485.981C585.317 486.681 584.709 487.231 583.925 487.631C583.159 488.014 582.309 488.206 581.375 488.206C580.309 488.206 579.35 487.989 578.5 487.556C577.65 487.106 576.975 486.439 576.475 485.556C575.992 484.672 575.75 483.597 575.75 482.331V474.306H578V482.031C578 483.381 578.342 484.422 579.025 485.156C579.709 485.872 580.642 486.231 581.825 486.231C583.042 486.231 584 485.856 584.7 485.106C585.4 484.356 585.75 483.264 585.75 481.831V474.306H588.025ZM598.541 474.056C600.208 474.056 601.558 474.564 602.591 475.581C603.625 476.581 604.141 478.031 604.141 479.931V488.006H601.891V480.256C601.891 478.889 601.55 477.847 600.866 477.131C600.183 476.397 599.25 476.031 598.066 476.031C596.866 476.031 595.908 476.406 595.191 477.156C594.491 477.906 594.141 478.997 594.141 480.431V488.006H591.866V474.306H594.141V476.256C594.591 475.556 595.2 475.014 595.966 474.631C596.75 474.247 597.608 474.056 598.541 474.056ZM607.008 481.131C607.008 479.714 607.291 478.481 607.858 477.431C608.424 476.364 609.208 475.539 610.208 474.956C611.224 474.372 612.383 474.081 613.683 474.081C615.366 474.081 616.749 474.489 617.833 475.306C618.933 476.122 619.658 477.256 620.008 478.706H617.558C617.324 477.872 616.866 477.214 616.183 476.731C615.516 476.247 614.683 476.006 613.683 476.006C612.383 476.006 611.333 476.456 610.533 477.356C609.733 478.239 609.333 479.497 609.333 481.131C609.333 482.781 609.733 484.056 610.533 484.956C611.333 485.856 612.383 486.306 613.683 486.306C614.683 486.306 615.516 486.072 616.183 485.606C616.849 485.139 617.308 484.472 617.558 483.606H620.008C619.641 485.006 618.908 486.131 617.808 486.981C616.708 487.814 615.333 488.231 613.683 488.231C612.383 488.231 611.224 487.939 610.208 487.356C609.208 486.772 608.424 485.947 607.858 484.881C607.291 483.814 607.008 482.564 607.008 481.131ZM625.818 476.181V484.256C625.818 484.922 625.96 485.397 626.243 485.681C626.526 485.947 627.018 486.081 627.718 486.081H629.393V488.006H627.343C626.076 488.006 625.126 487.714 624.493 487.131C623.86 486.547 623.543 485.589 623.543 484.256V476.181H621.768V474.306H623.543V470.856H625.818V474.306H629.393V476.181H625.818ZM633.325 472.081C632.891 472.081 632.525 471.931 632.225 471.631C631.925 471.331 631.775 470.964 631.775 470.531C631.775 470.097 631.925 469.731 632.225 469.431C632.525 469.131 632.891 468.981 633.325 468.981C633.741 468.981 634.091 469.131 634.375 469.431C634.675 469.731 634.825 470.097 634.825 470.531C634.825 470.964 634.675 471.331 634.375 471.631C634.091 471.931 633.741 472.081 633.325 472.081ZM634.425 474.306V488.006H632.15V474.306H634.425ZM644.277 488.231C642.994 488.231 641.827 487.939 640.777 487.356C639.744 486.772 638.927 485.947 638.327 484.881C637.744 483.797 637.452 482.547 637.452 481.131C637.452 479.731 637.752 478.497 638.352 477.431C638.969 476.347 639.802 475.522 640.852 474.956C641.902 474.372 643.077 474.081 644.377 474.081C645.677 474.081 646.852 474.372 647.902 474.956C648.952 475.522 649.777 476.339 650.377 477.406C650.994 478.472 651.302 479.714 651.302 481.131C651.302 482.547 650.985 483.797 650.352 484.881C649.735 485.947 648.894 486.772 647.827 487.356C646.76 487.939 645.577 488.231 644.277 488.231ZM644.277 486.231C645.094 486.231 645.86 486.039 646.577 485.656C647.294 485.272 647.869 484.697 648.302 483.931C648.752 483.164 648.977 482.231 648.977 481.131C648.977 480.031 648.76 479.097 648.327 478.331C647.894 477.564 647.327 476.997 646.627 476.631C645.927 476.247 645.169 476.056 644.352 476.056C643.519 476.056 642.752 476.247 642.052 476.631C641.369 476.997 640.819 477.564 640.402 478.331C639.985 479.097 639.777 480.031 639.777 481.131C639.777 482.247 639.977 483.189 640.377 483.956C640.794 484.722 641.344 485.297 642.027 485.681C642.71 486.047 643.46 486.231 644.277 486.231ZM660.968 474.056C662.635 474.056 663.985 474.564 665.018 475.581C666.051 476.581 666.568 478.031 666.568 479.931V488.006H664.318V480.256C664.318 478.889 663.976 477.847 663.293 477.131C662.61 476.397 661.676 476.031 660.493 476.031C659.293 476.031 658.335 476.406 657.618 477.156C656.918 477.906 656.568 478.997 656.568 480.431V488.006H654.293V474.306H656.568V476.256C657.018 475.556 657.626 475.014 658.393 474.631C659.176 474.247 660.035 474.056 660.968 474.056ZM675.134 488.231C674.084 488.231 673.143 488.056 672.309 487.706C671.476 487.339 670.818 486.839 670.334 486.206C669.851 485.556 669.584 484.814 669.534 483.981H671.884C671.951 484.664 672.268 485.222 672.834 485.656C673.418 486.089 674.176 486.306 675.109 486.306C675.976 486.306 676.659 486.114 677.159 485.731C677.659 485.347 677.909 484.864 677.909 484.281C677.909 483.681 677.643 483.239 677.109 482.956C676.576 482.656 675.751 482.364 674.634 482.081C673.618 481.814 672.784 481.547 672.134 481.281C671.501 480.997 670.951 480.589 670.484 480.056C670.034 479.506 669.809 478.789 669.809 477.906C669.809 477.206 670.018 476.564 670.434 475.981C670.851 475.397 671.443 474.939 672.209 474.606C672.976 474.256 673.851 474.081 674.834 474.081C676.351 474.081 677.576 474.464 678.509 475.231C679.443 475.997 679.943 477.047 680.009 478.381H677.734C677.684 477.664 677.393 477.089 676.859 476.656C676.343 476.222 675.643 476.006 674.759 476.006C673.943 476.006 673.293 476.181 672.809 476.531C672.326 476.881 672.084 477.339 672.084 477.906C672.084 478.356 672.226 478.731 672.509 479.031C672.809 479.314 673.176 479.547 673.609 479.731C674.059 479.897 674.676 480.089 675.459 480.306C676.443 480.572 677.243 480.839 677.859 481.106C678.476 481.356 679.001 481.739 679.434 482.256C679.884 482.772 680.118 483.447 680.134 484.281C680.134 485.031 679.926 485.706 679.509 486.306C679.093 486.906 678.501 487.381 677.734 487.731C676.984 488.064 676.118 488.231 675.134 488.231ZM692.286 476.856C692.753 476.039 693.436 475.372 694.336 474.856C695.236 474.339 696.261 474.081 697.411 474.081C698.644 474.081 699.753 474.372 700.736 474.956C701.719 475.539 702.494 476.364 703.061 477.431C703.628 478.481 703.911 479.706 703.911 481.106C703.911 482.489 703.628 483.722 703.061 484.806C702.494 485.889 701.711 486.731 700.711 487.331C699.728 487.931 698.628 488.231 697.411 488.231C696.228 488.231 695.186 487.972 694.286 487.456C693.403 486.939 692.736 486.281 692.286 485.481V488.006H690.011V469.506H692.286V476.856ZM701.586 481.106C701.586 480.072 701.378 479.172 700.961 478.406C700.544 477.639 699.978 477.056 699.261 476.656C698.561 476.256 697.786 476.056 696.936 476.056C696.103 476.056 695.328 476.264 694.611 476.681C693.911 477.081 693.344 477.672 692.911 478.456C692.494 479.222 692.286 480.114 692.286 481.131C692.286 482.164 692.494 483.072 692.911 483.856C693.344 484.622 693.911 485.214 694.611 485.631C695.328 486.031 696.103 486.231 696.936 486.231C697.786 486.231 698.561 486.031 699.261 485.631C699.978 485.214 700.544 484.622 700.961 483.856C701.378 483.072 701.586 482.156 701.586 481.106ZM718.705 474.306L710.455 494.456H708.105L710.805 487.856L705.28 474.306H707.805L712.105 485.406L716.355 474.306H718.705ZM739.307 475.681C739.307 477.131 738.807 478.339 737.807 479.306C736.824 480.256 735.316 480.731 733.282 480.731H729.932V488.006H727.657V470.581H733.282C735.249 470.581 736.741 471.056 737.757 472.006C738.791 472.956 739.307 474.181 739.307 475.681ZM733.282 478.856C734.549 478.856 735.482 478.581 736.082 478.031C736.682 477.481 736.982 476.697 736.982 475.681C736.982 473.531 735.749 472.456 733.282 472.456H729.932V478.856H733.282ZM748.11 488.231C746.827 488.231 745.66 487.939 744.61 487.356C743.577 486.772 742.76 485.947 742.16 484.881C741.577 483.797 741.285 482.547 741.285 481.131C741.285 479.731 741.585 478.497 742.185 477.431C742.802 476.347 743.635 475.522 744.685 474.956C745.735 474.372 746.91 474.081 748.21 474.081C749.51 474.081 750.685 474.372 751.735 474.956C752.785 475.522 753.61 476.339 754.21 477.406C754.827 478.472 755.135 479.714 755.135 481.131C755.135 482.547 754.818 483.797 754.185 484.881C753.568 485.947 752.727 486.772 751.66 487.356C750.593 487.939 749.41 488.231 748.11 488.231ZM748.11 486.231C748.927 486.231 749.693 486.039 750.41 485.656C751.127 485.272 751.702 484.697 752.135 483.931C752.585 483.164 752.81 482.231 752.81 481.131C752.81 480.031 752.593 479.097 752.16 478.331C751.727 477.564 751.16 476.997 750.46 476.631C749.76 476.247 749.002 476.056 748.185 476.056C747.352 476.056 746.585 476.247 745.885 476.631C745.202 476.997 744.652 477.564 744.235 478.331C743.818 479.097 743.61 480.031 743.61 481.131C743.61 482.247 743.81 483.189 744.21 483.956C744.627 484.722 745.177 485.297 745.86 485.681C746.543 486.047 747.293 486.231 748.11 486.231ZM760.401 469.506V488.006H758.126V469.506H760.401ZM776.079 474.306L767.829 494.456H765.479L768.179 487.856L762.654 474.306H765.179L769.479 485.406L773.729 474.306H776.079ZM777.515 481.106C777.515 479.706 777.799 478.481 778.365 477.431C778.932 476.364 779.707 475.539 780.69 474.956C781.69 474.372 782.799 474.081 784.015 474.081C785.215 474.081 786.257 474.339 787.14 474.856C788.024 475.372 788.682 476.022 789.115 476.806V474.306H791.415V488.006H789.115V485.456C788.665 486.256 787.99 486.922 787.09 487.456C786.207 487.972 785.174 488.231 783.99 488.231C782.774 488.231 781.674 487.931 780.69 487.331C779.707 486.731 778.932 485.889 778.365 484.806C777.799 483.722 777.515 482.489 777.515 481.106ZM789.115 481.131C789.115 480.097 788.907 479.197 788.49 478.431C788.074 477.664 787.507 477.081 786.79 476.681C786.09 476.264 785.315 476.056 784.465 476.056C783.615 476.056 782.84 476.256 782.14 476.656C781.44 477.056 780.882 477.639 780.465 478.406C780.049 479.172 779.84 480.072 779.84 481.106C779.84 482.156 780.049 483.072 780.465 483.856C780.882 484.622 781.44 485.214 782.14 485.631C782.84 486.031 783.615 486.231 784.465 486.231C785.315 486.231 786.09 486.031 786.79 485.631C787.507 485.214 788.074 484.622 788.49 483.856C788.907 483.072 789.115 482.164 789.115 481.131ZM807.025 485.906L811.275 474.306H813.7L808.325 488.006H805.675L800.3 474.306H802.75L807.025 485.906ZM828.439 480.631C828.439 481.064 828.414 481.522 828.364 482.006H817.414C817.497 483.356 817.955 484.414 818.789 485.181C819.639 485.931 820.664 486.306 821.864 486.306C822.847 486.306 823.664 486.081 824.314 485.631C824.98 485.164 825.447 484.547 825.714 483.781H828.164C827.797 485.097 827.064 486.172 825.964 487.006C824.864 487.822 823.497 488.231 821.864 488.231C820.564 488.231 819.397 487.939 818.364 487.356C817.347 486.772 816.547 485.947 815.964 484.881C815.38 483.797 815.089 482.547 815.089 481.131C815.089 479.714 815.372 478.472 815.939 477.406C816.505 476.339 817.297 475.522 818.314 474.956C819.347 474.372 820.53 474.081 821.864 474.081C823.164 474.081 824.314 474.364 825.314 474.931C826.314 475.497 827.08 476.281 827.614 477.281C828.164 478.264 828.439 479.381 828.439 480.631ZM826.089 480.156C826.089 479.289 825.897 478.547 825.514 477.931C825.13 477.297 824.605 476.822 823.939 476.506C823.289 476.172 822.564 476.006 821.764 476.006C820.614 476.006 819.63 476.372 818.814 477.106C818.014 477.839 817.555 478.856 817.439 480.156H826.089ZM830.592 481.131C830.592 479.714 830.875 478.481 831.442 477.431C832.008 476.364 832.792 475.539 833.792 474.956C834.808 474.372 835.967 474.081 837.267 474.081C838.95 474.081 840.333 474.489 841.417 475.306C842.517 476.122 843.242 477.256 843.592 478.706H841.142C840.908 477.872 840.45 477.214 839.767 476.731C839.1 476.247 838.267 476.006 837.267 476.006C835.967 476.006 834.917 476.456 834.117 477.356C833.317 478.239 832.917 479.497 832.917 481.131C832.917 482.781 833.317 484.056 834.117 484.956C834.917 485.856 835.967 486.306 837.267 486.306C838.267 486.306 839.1 486.072 839.767 485.606C840.433 485.139 840.892 484.472 841.142 483.606H843.592C843.225 485.006 842.492 486.131 841.392 486.981C840.292 487.814 838.917 488.231 837.267 488.231C835.967 488.231 834.808 487.939 833.792 487.356C832.792 486.772 832.008 485.947 831.442 484.881C830.875 483.814 830.592 482.564 830.592 481.131ZM849.402 476.181V484.256C849.402 484.922 849.544 485.397 849.827 485.681C850.11 485.947 850.602 486.081 851.302 486.081H852.977V488.006H850.927C849.66 488.006 848.71 487.714 848.077 487.131C847.444 486.547 847.127 485.589 847.127 484.256V476.181H845.352V474.306H847.127V470.856H849.402V474.306H852.977V476.181H849.402ZM861.709 488.231C860.425 488.231 859.259 487.939 858.209 487.356C857.175 486.772 856.359 485.947 855.759 484.881C855.175 483.797 854.884 482.547 854.884 481.131C854.884 479.731 855.184 478.497 855.784 477.431C856.4 476.347 857.234 475.522 858.284 474.956C859.334 474.372 860.509 474.081 861.809 474.081C863.109 474.081 864.284 474.372 865.334 474.956C866.384 475.522 867.209 476.339 867.809 477.406C868.425 478.472 868.734 479.714 868.734 481.131C868.734 482.547 868.417 483.797 867.784 484.881C867.167 485.947 866.325 486.772 865.259 487.356C864.192 487.939 863.009 488.231 861.709 488.231ZM861.709 486.231C862.525 486.231 863.292 486.039 864.009 485.656C864.725 485.272 865.3 484.697 865.734 483.931C866.184 483.164 866.409 482.231 866.409 481.131C866.409 480.031 866.192 479.097 865.759 478.331C865.325 477.564 864.759 476.997 864.059 476.631C863.359 476.247 862.6 476.056 861.784 476.056C860.95 476.056 860.184 476.247 859.484 476.631C858.8 476.997 858.25 477.564 857.834 478.331C857.417 479.097 857.209 480.031 857.209 481.131C857.209 482.247 857.409 483.189 857.809 483.956C858.225 484.722 858.775 485.297 859.459 485.681C860.142 486.047 860.892 486.231 861.709 486.231ZM874 476.531C874.4 475.747 874.966 475.139 875.7 474.706C876.45 474.272 877.358 474.056 878.425 474.056V476.406H877.825C875.275 476.406 874 477.789 874 480.556V488.006H871.725V474.306H874V476.531ZM893.291 476.181H890.416V488.006H888.141V476.181H886.366V474.306H888.141V473.331C888.141 471.797 888.533 470.681 889.316 469.981C890.116 469.264 891.391 468.906 893.141 468.906V470.806C892.141 470.806 891.433 471.006 891.016 471.406C890.616 471.789 890.416 472.431 890.416 473.331V474.306H893.291V476.181ZM897.119 472.081C896.685 472.081 896.319 471.931 896.019 471.631C895.719 471.331 895.569 470.964 895.569 470.531C895.569 470.097 895.719 469.731 896.019 469.431C896.319 469.131 896.685 468.981 897.119 468.981C897.535 468.981 897.885 469.131 898.169 469.431C898.469 469.731 898.619 470.097 898.619 470.531C898.619 470.964 898.469 471.331 898.169 471.631C897.885 471.931 897.535 472.081 897.119 472.081ZM898.219 474.306V488.006H895.944V474.306H898.219ZM914.596 480.631C914.596 481.064 914.571 481.522 914.521 482.006H903.571C903.654 483.356 904.113 484.414 904.946 485.181C905.796 485.931 906.821 486.306 908.021 486.306C909.004 486.306 909.821 486.081 910.471 485.631C911.138 485.164 911.604 484.547 911.871 483.781H914.321C913.954 485.097 913.221 486.172 912.121 487.006C911.021 487.822 909.654 488.231 908.021 488.231C906.721 488.231 905.554 487.939 904.521 487.356C903.504 486.772 902.704 485.947 902.121 484.881C901.538 483.797 901.246 482.547 901.246 481.131C901.246 479.714 901.529 478.472 902.096 477.406C902.663 476.339 903.454 475.522 904.471 474.956C905.504 474.372 906.688 474.081 908.021 474.081C909.321 474.081 910.471 474.364 911.471 474.931C912.471 475.497 913.238 476.281 913.771 477.281C914.321 478.264 914.596 479.381 914.596 480.631ZM912.246 480.156C912.246 479.289 912.054 478.547 911.671 477.931C911.288 477.297 910.763 476.822 910.096 476.506C909.446 476.172 908.721 476.006 907.921 476.006C906.771 476.006 905.788 476.372 904.971 477.106C904.171 477.839 903.713 478.856 903.596 480.156H912.246ZM919.874 469.506V488.006H917.599V469.506H919.874ZM922.901 481.106C922.901 479.706 923.185 478.481 923.751 477.431C924.318 476.364 925.093 475.539 926.076 474.956C927.076 474.372 928.193 474.081 929.426 474.081C930.493 474.081 931.485 474.331 932.401 474.831C933.318 475.314 934.018 475.956 934.501 476.756V469.506H936.801V488.006H934.501V485.431C934.051 486.247 933.385 486.922 932.501 487.456C931.618 487.972 930.585 488.231 929.401 488.231C928.185 488.231 927.076 487.931 926.076 487.331C925.093 486.731 924.318 485.889 923.751 484.806C923.185 483.722 922.901 482.489 922.901 481.106ZM934.501 481.131C934.501 480.097 934.293 479.197 933.876 478.431C933.46 477.664 932.893 477.081 932.176 476.681C931.476 476.264 930.701 476.056 929.851 476.056C929.001 476.056 928.226 476.256 927.526 476.656C926.826 477.056 926.268 477.639 925.851 478.406C925.435 479.172 925.226 480.072 925.226 481.106C925.226 482.156 925.435 483.072 925.851 483.856C926.268 484.622 926.826 485.214 927.526 485.631C928.226 486.031 929.001 486.231 929.851 486.231C930.701 486.231 931.476 486.031 932.176 485.631C932.893 485.214 933.46 484.622 933.876 483.856C934.293 483.072 934.501 482.164 934.501 481.131Z" fill="white"/>
<path d="M445 113C441 113 441 116 445 116" stroke="#EB0FC2" stroke-width="3"/>
<path d="M653 86.0001C655.5 86.0001 654 83.0001 652 84.5001" stroke="#EB0CCC" stroke-width="3"/>
<path d="M444.5 390.5C442.5 390.5 443 393.5 445 393.5" stroke="#FA6C55" stroke-width="3"/>
<path d="M522 405C520 405 521.5 409.5 523 407.5" stroke="#FB7253" stroke-width="3"/>
<ellipse cx="522" cy="406.5" rx="1" ry="0.5" fill="#FB7253"/>
<ellipse cx="579" cy="420.5" rx="1" ry="1.5" fill="#FB7253"/>
<defs>
<linearGradient id="paint0_linear_2_106" x1="594.59" y1="85" x2="594.59" y2="420.5" gradientUnits="userSpaceOnUse">
<stop stop-color="#EB0CCC"/>
<stop offset="0.465" stop-color="#EC2466"/>
<stop offset="1" stop-color="#FB7253"/>
</linearGradient>
<linearGradient id="paint1_linear_2_106" x1="520.843" y1="101.006" x2="520.843" y2="406.506" gradientUnits="userSpaceOnUse">
<stop stop-color="#EB0CCC"/>
<stop offset="0.465" stop-color="#EC2466"/>
<stop offset="1" stop-color="#FB7253"/>
</linearGradient>
<linearGradient id="paint2_linear_2_106" x1="637.59" y1="85.0057" x2="637.59" y2="420.506" gradientUnits="userSpaceOnUse">
<stop stop-color="#EB0CCC"/>
<stop offset="0.465" stop-color="#EC2466"/>
<stop offset="1" stop-color="#FB7253"/>
</linearGradient>
<linearGradient id="paint3_linear_2_106" x1="711.337" y1="101.011" x2="711.337" y2="406.511" gradientUnits="userSpaceOnUse">
<stop stop-color="#EB0CCC"/>
<stop offset="0.465" stop-color="#EC2466"/>
<stop offset="1" stop-color="#FB7253"/>
</linearGradient>
</defs>
</svg>
